<?xml version="1.0" encoding="UTF-8"?>
<svg width="30px" height="30px" viewBox="0 0 30 30" version="1.1" xmlns="http://www.w3.org/2000/svg" xmlns:xlink="http://www.w3.org/1999/xlink">
    <!-- Generator: Sketch 58 (84663) - https://sketch.com -->
    <title>topbar/icon/notifcations@1x</title>
    <desc>Created with Sketch.</desc>
    <g id="topbar/icon/notifcations" stroke="none" stroke-width="1" fill="none" fill-rule="evenodd">
        <path d="M15.5,28 C13.6895833,28 12.15,26.6445343 11.8947917,24.8720023 L3.52083333,24.8720023 C3.23333333,24.8720023 3,24.6384452 3,24.3506694 C3,24.0628936 3.23333333,23.8293364 3.52083333,23.8293364 C4.95729167,23.8293364 6.125,22.6594653 6.125,21.2226717 L6.125,14.4453435 C6.12604167,10.6604663 8.465625,7.18943154 11.9604167,5.76410727 C12.3135417,4.34399633 13.4572917,3.28464779 14.9114583,3.04796263 C15.10625,3.01668265 15.303125,3 15.4989583,3 C17.1677083,3 18.6322917,4.15423114 19.034375,5.76410727 C22.5302083,7.18943154 24.8708333,10.6604663 24.875,14.4453435 L24.875,21.2226717 C24.875,22.6594653 26.04375,23.8293364 27.4791667,23.8293364 C27.7666667,23.8293364 28,24.0628936 28,24.3506694 C28,24.6384452 27.7666667,24.8720023 27.4791667,24.8720023 L19.1052083,24.8720023 C18.85,26.6445343 17.3104167,28 15.5,28 Z M12.95,24.8720023 C13.1947917,26.0616841 14.2635417,26.9573341 15.5,26.9573341 C16.7364583,26.9573341 17.8052083,26.0616841 18.05,24.8720023 L12.95,24.8720023 Z M24.928125,23.8293364 C24.2322917,23.1495183 23.8333333,22.2194603 23.8333333,21.2226717 L23.8333333,14.4453435 C23.8291667,10.9805647 21.646875,7.84214038 18.4010417,6.63577595 C18.2260417,6.57113067 18.0979167,6.41577345 18.0677083,6.23122159 C17.8614583,4.96333987 16.7802083,4.04266589 15.496875,4.04266589 C15.3572917,4.04266589 15.2166667,4.05413521 15.078125,4.0760312 C13.9729167,4.25745506 13.1083333,5.12286775 12.9270833,6.23017892 C12.8979167,6.41577345 12.7697917,6.570088 12.5947917,6.63577595 C9.34895833,7.84214038 7.16770833,10.9805647 7.16666667,14.4453435 L7.16666667,21.2226717 C7.16666667,22.2194603 6.76770833,23.1495183 6.071875,23.8293364 L24.928125,23.8293364 Z" id="Shape" fill="#021D49" fill-rule="nonzero"></path>
    </g>
</svg>