<?xml version="1.0" encoding="UTF-8"?>
<svg width="30px" height="30px" viewBox="0 0 30 30" version="1.1" xmlns="http://www.w3.org/2000/svg" xmlns:xlink="http://www.w3.org/1999/xlink">
    <!-- Generator: Sketch 58 (84663) - https://sketch.com -->
    <title>topbar/icon/profile@2x</title>
    <desc>Created with Sketch.</desc>
    <g id="topbar/icon/profile" stroke="none" stroke-width="1" fill="none" fill-rule="evenodd">
        <g id="single-neutral-circle" transform="translate(3.000000, 3.000000)" fill="#122048" fill-rule="nonzero">
            <path d="M12.5,25 C5.60729167,25 0,19.3927083 0,12.5 C0,5.60729167 5.60729167,0 12.5,0 C19.3927083,0 25,5.60729167 25,12.5 C25,19.3927083 19.3927083,25 12.5,25 Z M12.5,1.04166667 C6.18229167,1.04166667 1.04166667,6.18229167 1.04166667,12.5 C1.04166667,18.8177083 6.18229167,23.9583333 12.5,23.9583333 C18.8177083,23.9583333 23.9583333,18.8177083 23.9583333,12.5 C23.9583333,6.18229167 18.8177083,1.04166667 12.5,1.04166667 Z" id="Shape"></path>
            <path d="M12.5,14.0625 C9.771875,14.0625 7.55208333,11.8427083 7.55208333,9.11458333 C7.55208333,6.38645833 9.771875,4.16666667 12.5,4.16666667 C15.228125,4.16666667 17.4479167,6.38645833 17.4479167,9.11458333 C17.4479167,11.8427083 15.228125,14.0625 12.5,14.0625 Z M12.5,5.20833333 C10.3458333,5.20833333 8.59375,6.96041667 8.59375,9.11458333 C8.59375,11.26875 10.3458333,13.0208333 12.5,13.0208333 C14.6541667,13.0208333 16.40625,11.26875 16.40625,9.11458333 C16.40625,6.96041667 14.6541667,5.20833333 12.5,5.20833333 Z" id="Shape"></path>
            <path d="M5.91979167,19.7916667 C5.84166667,19.7916667 5.76666667,19.775 5.696875,19.740625 C5.4375,19.6177083 5.32708333,19.30625 5.45,19.046875 C6.21979167,17.4197917 7.53854167,16.1 9.165625,15.33125 C10.2145833,14.8354167 11.3333333,14.5833333 12.4885417,14.5833333 C15.4958333,14.5833333 18.26875,16.3354167 19.5520833,19.0479167 C19.6739583,19.3083333 19.5635417,19.61875 19.3041667,19.7416667 C19.2322917,19.775 19.1572917,19.7916667 19.0802083,19.7916667 C18.8791667,19.7916667 18.6947917,19.675 18.609375,19.49375 C17.4979167,17.14375 15.0947917,15.625 12.4885417,15.625 C11.4885417,15.625 10.5197917,15.8427083 9.61041667,16.2739583 C8.20104167,16.940625 7.05729167,18.084375 6.390625,19.49375 C6.30520833,19.675 6.11979167,19.7916667 5.91979167,19.7916667 Z" id="Path"></path>
        </g>
    </g>
</svg>