<?xml version="1.0" encoding="UTF-8"?>
<svg width="30px" height="30px" viewBox="0 0 30 30" version="1.1" xmlns="http://www.w3.org/2000/svg" xmlns:xlink="http://www.w3.org/1999/xlink">
    <!-- Generator: Sketch 58 (84663) - https://sketch.com -->
    <title>topbar/icon/settings@2x</title>
    <desc>Created with Sketch.</desc>
    <g id="topbar/icon/settings" stroke="none" stroke-width="1" fill="none" fill-rule="evenodd">
        <path d="M15.5031247,3 C15.7853931,3 16.0634951,3.04791667 16.3311813,3.14375 C17.0352898,3.39375 17.5821197,3.94166667 17.832099,4.64479167 L18.3008103,5.9625 C18.4289247,6.32291667 18.6893199,6.61145833 19.0340831,6.77604167 C19.2288586,6.86875 19.4350916,6.915625 19.647574,6.915625 C19.8100606,6.915625 19.9715056,6.8875 20.1277427,6.83229167 C20.1746138,6.815625 20.2194018,6.796875 20.2641898,6.77604167 L21.5265855,6.17395833 C21.8619744,6.01354167 22.2192366,5.93229167 22.5889977,5.93229167 C23.5389192,5.93229167 24.4159301,6.484375 24.8242297,7.33958333 C25.1481613,8.01666667 25.1481613,8.79375 24.8242297,9.471875 L24.2221961,10.7354167 C24.058668,11.0802083 24.0378364,11.46875 24.1659508,11.8291667 C24.2940652,12.1895833 24.5544603,12.478125 24.8992235,12.6427083 C24.9429699,12.6635417 24.9887995,12.6822917 25.034629,12.6989583 L26.3522285,13.1677083 C26.9750937,13.3885417 27.4740108,13.8395833 27.7583623,14.4354167 C28.0427138,15.0322917 28.077086,15.703125 27.8562709,16.3270833 C27.6062916,17.0322917 27.0573786,17.5802083 26.3522285,17.83125 L25.034629,18.3 C24.6742421,18.428125 24.3857243,18.6885417 24.2211545,19.0333333 C24.0576264,19.378125 24.0367948,19.7666667 24.1649092,20.1270833 C24.1815745,20.1739583 24.2003229,20.2197917 24.2211545,20.2635417 L24.8221466,21.5239583 C25.1064981,22.1197917 25.1429534,22.7916667 24.9221383,23.4145833 C24.7023648,24.0375 24.252402,24.5375 23.6555763,24.8229167 C23.3181041,24.984375 22.9598004,25.065625 22.5889977,25.065625 C22.218195,25.065625 21.8598913,24.984375 21.5234607,24.8229167 L20.261065,24.2239583 C20.0652479,24.13125 19.8590149,24.0833333 19.6465325,24.0833333 C19.4840459,24.0833333 19.3226009,24.1114583 19.1663638,24.1666667 C18.8059769,24.2947917 18.5174591,24.5552083 18.3528893,24.9 C18.3320577,24.94375 18.3133093,24.9895833 18.296644,25.0354167 L17.8279327,26.3541667 C17.606076,26.9770833 17.1550716,27.4760417 16.5582459,27.759375 C16.2280649,27.91875 15.8718443,28 15.5041663,28 C15.221898,28 14.9427544,27.9510417 14.672985,27.85625 C13.9688765,27.60625 13.4220467,27.0583333 13.1710257,26.3541667 L12.7023144,25.0364583 C12.5742,24.6760417 12.3127633,24.3864583 11.9680001,24.2229167 C11.7732245,24.1302083 11.5669916,24.0833333 11.3545091,24.0833333 C11.190981,24.0833333 11.029536,24.1114583 10.8732989,24.1666667 C10.8285109,24.1833333 10.7826814,24.2010417 10.738935,24.221875 L9.47653926,24.8229167 C9.13906714,24.984375 8.78076341,25.0666667 8.41100229,25.0666667 C8.13185868,25.0666667 7.85479824,25.01875 7.5881536,24.925 C6.96528838,24.70625 6.46532969,24.2572917 6.17889501,23.6614583 C5.85288028,22.9822917 5.85288028,22.2020833 6.17889501,21.5229167 L6.77780387,20.2614583 C7.11735916,19.5489583 6.81321761,18.6927083 6.10077647,18.3541667 C6.05703008,18.3333333 6.01120053,18.3145833 5.96537099,18.2979167 L4.64672992,17.8291667 C4.02386471,17.6083333 3.52494759,17.1583333 3.24163766,16.5614583 C2.95728615,15.9645833 2.92291399,15.2927083 3.14372908,14.6708333 C3.39370843,13.965625 3.94157984,13.4177083 4.6477715,13.1666667 L5.96537099,12.6979167 C6.3247163,12.5697917 6.61323413,12.309375 6.77780387,11.9635417 C6.94237361,11.6166667 6.96216364,11.228125 6.83509081,10.86875 C6.81842552,10.8229167 6.79967707,10.778125 6.77884545,10.734375 L6.17889501,9.471875 C5.59040196,8.24375 6.11119227,6.76354167 7.34025741,6.17395833 C7.67772953,6.01145833 8.03811642,5.93020833 8.40891913,5.93020833 C8.77972183,5.93020833 9.1411503,6.0125 9.47862242,6.17395833 L10.7399766,6.77291667 C10.9337106,6.86458333 11.1389019,6.91145833 11.3513844,6.91145833 C11.9034221,6.91145833 12.4117135,6.590625 12.6481523,6.09375 C12.6689839,6.05104167 12.6866907,6.00729167 12.7023144,5.9625 L13.1710257,4.64479167 C13.5209968,3.66041667 14.4584194,3 15.5031247,3 Z M15.5062495,4.04166667 C14.9010911,4.04166667 14.3573861,4.42395833 14.1553194,4.99375 L13.6866081,6.31145833 C13.6584855,6.38958333 13.627238,6.465625 13.5918243,6.540625 C13.3064312,7.1375 12.8075141,7.58854167 12.1846489,7.81041667 C11.9148795,7.90625 11.6357359,7.95416667 11.3534675,7.95416667 C10.9857896,7.95416667 10.629569,7.87291667 10.2941801,7.71354167 L9.03074276,7.11458333 C8.83284244,7.01979167 8.62452631,6.971875 8.40996071,6.971875 C8.1953951,6.971875 7.98707897,7.01979167 7.79126182,7.11354167 C7.44649863,7.27916667 7.18714506,7.56875 7.06007222,7.92916667 C6.93299938,8.28958333 6.953831,8.678125 7.11944232,9.02291667 L7.72043434,10.2885417 C7.75584808,10.3635417 7.78813708,10.440625 7.81625975,10.5197917 C8.03811642,11.1427083 8.00374426,11.8135417 7.71939275,12.4104167 C7.43504124,13.0072917 6.93716571,13.4572917 6.3143005,13.6791667 L4.99670101,14.1479167 C4.58840141,14.2927083 4.27071932,14.6104167 4.12593961,15.01875 C3.99782519,15.3791667 4.01761522,15.7677083 4.18218496,16.1135417 C4.3467547,16.459375 4.63527253,16.7197917 4.99565943,16.8479167 L6.3143005,17.3166667 C6.39346062,17.3447917 6.47157917,17.3770833 6.54865614,17.4135417 C7.77980443,18 8.30476106,19.478125 7.71939275,20.709375 L7.11944232,21.9729167 C6.92987464,22.3677083 6.92987464,22.81875 7.11840074,23.2125 C7.28401205,23.5572917 7.57357147,23.8177083 7.93395836,23.94375 C8.08811229,23.9979167 8.24851571,24.0260417 8.40996071,24.0260417 C8.62348473,24.0260417 8.83180086,23.978125 9.02761802,23.884375 L10.2900137,23.2833333 C10.3660491,23.246875 10.4441677,23.2145833 10.5233278,23.1864583 C10.7941388,23.0895833 11.0732824,23.040625 11.3555507,23.040625 C11.7232287,23.040625 12.0804908,23.121875 12.4158798,23.28125 C13.0127055,23.5645833 13.4626683,24.0645833 13.684525,24.6864583 L14.1532363,26.0041667 C14.298016,26.4114583 14.6146565,26.728125 15.0219145,26.8729167 C15.1781516,26.9291667 15.3406382,26.9572917 15.5031247,26.9572917 C15.7156072,26.9572917 15.9218402,26.9104167 16.1166157,26.8177083 C16.4624205,26.653125 16.7238572,26.3645833 16.8519716,26.0041667 L17.3206829,24.6864583 C17.3488056,24.60625 17.3821362,24.528125 17.4175499,24.4520833 C17.7019014,23.8552083 18.2008186,23.4052083 18.8226422,23.184375 C19.09137,23.0885417 19.3705136,23.040625 19.6517404,23.040625 C20.0194183,23.040625 20.3766805,23.121875 20.713111,23.28125 L21.9755067,23.88125 C22.1713239,23.975 22.37964,24.021875 22.5942056,24.021875 C22.8087712,24.021875 23.0160458,23.975 23.2118629,23.88125 C23.5566261,23.7166667 23.8170213,23.4270833 23.9440941,23.0666667 C24.0722085,22.70625 24.0513769,22.3177083 23.8868072,21.971875 L23.2847736,20.7104167 C23.2483182,20.6333333 23.2160292,20.5552083 23.186865,20.475 C22.9660499,19.853125 23.0014636,19.1822917 23.2847736,18.5854167 C23.5691251,17.9885417 24.0670006,17.5375 24.6888242,17.3166667 L26.0064237,16.8479167 C26.4147233,16.703125 26.7324054,16.3854167 26.8771851,15.9770833 C27.0052995,15.6166667 26.9855095,15.228125 26.8209398,14.8822917 C26.65637,14.5364583 26.3668106,14.2760417 26.0074653,14.1479167 L24.6898658,13.6791667 C24.6107057,13.6510417 24.5315456,13.61875 24.4555102,13.5822917 C23.8586845,13.2979167 23.4087217,12.7989583 23.1879066,12.1770833 C22.9670915,11.5552083 23.0014636,10.8833333 23.2847736,10.2864583 L23.8868072,9.02291667 C24.0742917,8.63020833 24.0742917,8.18020833 23.8868072,7.78854167 C23.6503684,7.29375 23.142077,6.97395833 22.5921225,6.97395833 C22.3785984,6.97395833 22.1713239,7.02083333 21.9775899,7.11354167 L20.7141526,7.715625 C20.6370756,7.75208333 20.5579155,7.784375 20.4787554,7.81354167 C20.2121107,7.90833333 19.9350503,7.95625 19.6538235,7.95625 C18.6080766,7.95625 17.6716956,7.29479167 17.3217245,6.31041667 L16.8530132,4.99270833 C16.7082335,4.58541667 16.391593,4.26875 15.984335,4.12395833 C15.8301811,4.06875 15.6687361,4.04166667 15.5062495,4.04166667 Z M15.5020832,10.290625 C18.3737209,10.290625 20.7099863,12.6270833 20.7099863,15.4989583 C20.7099863,18.3708333 18.3737209,20.7072917 15.5020832,20.7072917 C12.6304454,20.7072917 10.2941801,18.3708333 10.2941801,15.4989583 C10.2941801,12.6270833 12.6304454,10.290625 15.5020832,10.290625 Z M15.5020832,11.3322917 C13.2043563,11.3322917 11.3357607,13.2010417 11.3357607,15.4989583 C11.3357607,17.796875 13.2043563,19.665625 15.5020832,19.665625 C17.79981,19.665625 19.6684056,17.796875 19.6684056,15.4989583 C19.6684056,13.2010417 17.79981,11.3322917 15.5020832,11.3322917 Z" id="Combined-Shape" fill="#122048" fill-rule="nonzero"></path>
    </g>
</svg>